<svg xmlns="http://www.w3.org/2000/svg" width="177" height="32" viewBox="0 0 177 32" fill="none">
<path d="M25.1305 0H20.7137V3.30477C23.1404 3.30477 25.1204 5.26128 25.1305 7.70438V11.7999C25.1305 12.3676 24.6635 12.8339 24.0847 12.8339H10.9051C10.3264 12.8339 9.86945 12.3676 9.86945 11.7999V7.70438C9.86945 5.27142 11.8494 3.30477 14.2762 3.30477V0H0V3.30477C2.42675 3.30477 4.40673 5.26128 4.41688 7.70438V23.2855C4.41688 25.7286 2.42675 27.6851 0 27.6952V30.9899H4.41688L9.86945 31H14.2762V27.6952C11.8393 27.6952 9.86945 25.7286 9.86945 23.2855V19.19C9.86945 18.6122 10.3264 18.156 10.9051 18.156H24.0847C24.6533 18.156 25.1305 18.6223 25.1305 19.19V23.2855C25.1305 25.7286 23.1506 27.6851 20.7137 27.6952V31H35V27.6952C32.5631 27.6952 30.5933 25.7286 30.5933 23.2855V7.70438C30.5933 5.27142 32.5732 3.30477 35 3.30477V0H25.1305Z" fill="#E42313"/>
<path d="M92.11 4.99557C96.5856 4.99557 100.119 7.64028 101.699 11.4098H105V0.50665H101.699C101.699 1.26662 101.081 1.88474 100.322 1.88474C100.17 1.88474 100.008 1.85434 99.8663 1.79354V1.81381C97.6285 0.658645 95.0464 0 92.2011 0C82.7032 0 76 7.29576 76 16V16.0912C76 24.7954 82.6222 32 92.1201 32C92.4138 32 92.7175 31.9899 93.0112 31.9696C93.2238 31.9595 93.4263 31.9493 93.6187 31.9189C93.6896 31.9189 93.7503 31.9189 93.8212 31.9088C98.398 31.4528 102.327 29.1425 104.909 25.7277L101.426 22.2419C99.2891 25.0792 95.9375 27.0044 92.4239 27.0044C92.3429 27.0044 92.272 27.0044 92.2011 27.0044C86.0548 27.0044 81.6906 22.019 81.6906 16V15.9088C81.6906 9.89994 85.9738 4.99557 92.11 4.99557Z" fill="#E42313"/>
<path d="M66.37 15.5811C66.37 21.6432 62.18 26.0327 55.76 26.0327H49.73V4.95716H55.76C62.18 4.95716 66.37 9.43787 66.37 15.4899V15.5912V15.5811ZM55.75 0H44.35H40V3.30477C42.4 3.30477 44.35 5.26128 44.35 7.70438V23.2855C44.35 25.7286 42.4 27.6851 40 27.6851V31H44.35L55.75 30.9899C65.36 30.9899 72 24.2283 72 15.4899V15.4088C72 6.68051 65.36 0 55.75 0Z" fill="#E42313"/>
<path d="M133.971 16C133.61 16.0697 133.207 16.1393 132.743 16.2289C132.279 16.3185 131.783 16.3683 131.267 16.418C130.762 16.4678 130.267 16.5076 129.771 16.5375C129.276 16.5674 128.833 16.5873 128.451 16.5873H119.103V7.56934H126.883V4.50365H119V1.44791H130.628V10.4957H122.817V13.5614H128.843C129.534 13.5614 130.37 13.5415 131.36 13.4917C132.351 13.4419 133.217 13.3524 133.981 13.213V1H137.582V7.26078H141.358V1H145V17.1745H141.358V10.2966H137.582V17.1745H133.981V16H133.971ZM123.344 18.5481H127.264V21.6138H140.852V18.5481H144.845V31H123.333V18.5481H123.344ZM127.264 27.9443H140.852V24.6795H127.264V27.9443Z" fill="#535657"/>
<path d="M149 24.8842H177V28H149V24.8842ZM160.967 1H164.991V4.28775C164.991 5.75459 165.303 7.1405 165.927 8.44549C166.551 9.75047 167.403 10.9239 168.474 11.976C169.524 13.0483 170.751 13.979 172.144 14.7782C173.538 15.5673 175.004 16.1742 176.563 16.5991L174.265 19.0472C173.236 18.7235 172.176 18.2683 171.105 17.7018C170.034 17.1353 168.994 16.4575 168.017 15.6886C167.008 14.9401 166.083 14.1105 165.23 13.2102C164.378 12.2997 163.681 11.3185 163.13 10.2765C162.558 11.3488 161.841 12.3503 160.988 13.2709C160.136 14.1915 159.221 15.0109 158.243 15.7392C157.235 16.5081 156.185 17.1757 155.082 17.7321C153.98 18.2885 152.878 18.7437 151.776 19.0978L149.478 16.6497C151.017 16.2248 152.473 15.628 153.866 14.8288C155.259 14.0397 156.486 13.0888 157.567 11.9963C158.597 10.9442 159.429 9.76058 160.052 8.44549C160.676 7.13039 160.988 5.74447 160.988 4.29786V1H160.967Z" fill="#535657"/>
</svg>
